<svg xmlns="http://www.w3.org/2000/svg" width="18" height="18"><filter filterUnits="objectBoundingBox" x="0" y="0" width="100" height="100" id="a"><feFlood flood-color="red" result="coFloodOut1"/><feComposite in="coFloodOut1" in2="SourceAlpha" operator="in" result="coOverlay1"/><feBlend in="coOverlay1" in2="SourceGraphic" result="colorOverlay1"/></filter><g transform="scale(.03)" filter="url(#a)"><path d="M378.73 306L596.92 87.82c20.08-20.09 20.08-52.65 0-72.73C576.83-5 544.27-5 524.19 15.09L306 233.28 87.81 15.08C67.73-5 35.17-5 15.08 15.08-5 35.17-5 67.73 15.08 87.81L233.27 306 15.08 524.19C-5 544.27-5 576.83 15.08 596.92c20.09 20.08 52.65 20.08 72.73 0L306 378.73l218.19 218.19c20.08 20.08 52.64 20.08 72.73 0 20.08-20.09 20.08-52.65 0-72.73L378.73 306z"/></g></svg>